<?xml version="1.0" encoding="UTF-8" standalone="no"?><!DOCTYPE svg PUBLIC "-//W3C//DTD SVG 1.1//EN" "http://www.w3.org/Graphics/SVG/1.1/DTD/svg11.dtd"><svg width="100%" height="100%" viewBox="0 0 1846 817" version="1.1" xmlns="http://www.w3.org/2000/svg" xmlns:xlink="http://www.w3.org/1999/xlink" xml:space="preserve" xmlns:serif="http://www.serif.com/" style="fill-rule:evenodd;clip-rule:evenodd;stroke-linejoin:round;stroke-miterlimit:1.41421;"><g><rect x="954.55" y="0" width="891.221" height="816.95" style="fill:#faaa65;fill-rule:nonzero;"/><path d="M1274.27,548.012l9.75,-13.495c6.896,7.345 17.696,13.795 31.646,13.795c14.4,0 20.096,-7.041 20.096,-13.641c0,-21.004 -58.342,-7.954 -58.342,-44.85c0,-16.5 14.546,-29.246 36.446,-29.246c15.596,0 28.2,4.95 37.495,13.946l-10.049,13.05c-7.796,-7.8 -18.446,-11.396 -28.946,-11.396c-10.35,0 -16.95,4.946 -16.95,12.446c0,18.596 58.196,7.046 58.196,44.391c0,16.65 -11.701,30.896 -38.696,30.896c-18.45,0 -31.796,-6.45 -40.646,-15.896Z" style="fill:#fff;fill-rule:nonzero;"/><path d="M1369.82,562.112l0,-100.037l68.542,0l0,15.446l-50.992,0l0,25.946l49.941,0l0,15.45l-49.941,0l0,27.745l50.992,0l0,15.45l-68.542,0Z" style="fill:#fff;fill-rule:nonzero;"/><path d="M1526.11,562.112l-52.195,-71.391l0,71.391l-17.55,0l0,-100.037l18,0l51.141,69.442l0,-69.442l17.55,0l0,100.037l-16.946,0Z" style="fill:#fff;fill-rule:nonzero;"/><path d="M1564.37,562.112l0,-100.037l68.541,0l0,15.446l-50.991,0l0,25.946l49.941,0l0,15.45l-49.941,0l0,27.745l50.991,0l0,15.45l-68.541,0Z" style="fill:#fff;fill-rule:nonzero;"/><path d="M1717.8,562.112l-28.042,-39.145l-28.049,39.145l-20.996,0l37.491,-51.295l-35.245,-48.742l21,0l25.799,36.742l25.646,-36.742l21.146,0l-35.096,48.592l37.346,51.445l-21,0Z" style="fill:#fff;fill-rule:nonzero;"/><path d="M1199.28,629.896c0,-12.263 -8.4,-21.2 -21.466,-21.2l-26.396,0l0,42.4l26.396,0c13.066,0 21.466,-8.934 21.466,-21.2Zm-52.133,63.729l0,-88.929l30.8,0c16.533,0 26,11.604 26,25.2c0,13.6 -9.733,25.2 -26,25.2l-26.529,0l0,38.529l-4.271,0Z" style="fill:#fff;fill-rule:nonzero;"/><path d="M1297.95,649.229c0,-24.4 -14.8,-41.996 -37.6,-41.996c-23.063,0 -37.592,17.596 -37.592,41.996c0,24.133 14.529,41.996 37.592,41.996c22.8,0 37.6,-17.863 37.6,-41.996Zm-79.858,0c0,-25.733 16.395,-45.996 42.258,-45.996c25.733,0 42.267,20.263 42.267,45.996c0,25.733 -16.534,45.996 -42.267,45.996c-25.863,0 -42.258,-20.263 -42.258,-45.996Z" style="fill:#fff;fill-rule:nonzero;"/><path d="M1388.48,693.625l-23.066,-80.929l-23.063,80.929l-5.066,0l-25.334,-88.929l4.667,0l23.2,82.529l23.329,-82.529l4.533,0l23.334,82.529l23.196,-82.529l4.666,0l-25.329,88.929l-5.067,0Z" style="fill:#fff;fill-rule:nonzero;"/><path d="M1433.95,693.625l0,-88.929l54.4,0l0,4l-50.129,0l0,37.2l49.192,0l0,4l-49.192,0l0,39.729l50.129,0l0,4l-54.4,0Z" style="fill:#fff;fill-rule:nonzero;"/><path d="M1560.61,629.896c0,-12.263 -8.529,-21.2 -21.599,-21.2l-26.396,0l0,42.533l26.396,0c13.07,0 21.599,-9.067 21.599,-21.333Zm0.401,63.729l-27.067,-38.4l-21.329,0l0,38.4l-4.267,0l0,-88.929l30.663,0c14.4,0 26.266,8.937 26.266,25.2c0,16.266 -11.866,25.329 -26.266,25.329l27.466,38.4l-5.466,0Z" style="fill:#fff;fill-rule:nonzero;"/><path d="M1585.55,693.625l0,-88.929l54.4,0l0,4l-50.129,0l0,37.2l49.191,0l0,4l-49.191,0l0,39.729l50.129,0l0,4l-54.4,0Z" style="fill:#fff;fill-rule:nonzero;"/><path d="M1725.94,649.229c0,-22.267 -14.396,-40.533 -39.592,-40.533l-22.133,0l0,80.929l22.133,0c25.196,0 39.592,-17.867 39.592,-40.396Zm-65.992,44.396l0,-88.929l26.4,0c27.596,0 44.262,20.804 44.262,44.533c0,24 -16.666,44.396 -44.262,44.396l-26.4,0Z" style="fill:#fff;fill-rule:nonzero;"/><path d="M1640.11,209.821c-3.426,15.883 7.791,36.4 2.408,54.108c-6.513,21.438 -33.179,30.571 -33.179,30.571c0,0 -1.696,6.383 -5.134,12.567c-3.437,6.187 -7.521,11.42 -7.521,11.42c0,0 -1.25,-1.841 -3.091,-1.445c-1.846,0.4 -3.142,-0.546 -3.142,-0.546c0,0 11.8,-12.992 15.496,-29.475c1.733,-7.725 0.6,-14.509 0.6,-14.509c0,0 4.392,-25.979 13.408,-43.725c5,-9.845 13.692,-21.395 13.692,-21.395c0,0 -7.629,6.2 -16.975,23.637c-7.137,13.313 -11.904,36.3 -11.904,36.3c0,0 -2.9,-9.192 -10.071,-16.367c-3.775,-3.775 -9.137,-7.675 -9.137,-7.675c0,0 1.199,-20.883 29.062,-35.812c14.696,-7.875 29.792,-11.121 29.792,-11.121l-2.871,2.808c0,0 1.867,-0.895 3.312,-1.345c1.442,-0.446 2.975,0.191 2.975,0.191c0,0 -5.5,1.529 -7.72,11.813Zm-79.496,77.791c-8.654,-10.8 -4.55,-23.549 -7.946,-36.283c-3.333,-12.487 -9.571,-17.404 -9.571,-17.404c0,0 27.783,-0.054 41.633,11.817c13.85,11.87 18.959,21.92 18.313,33.316c-0.646,11.392 -7.825,21.171 -7.825,21.171c0,0 -10.017,-25.225 -15.446,-34.512c-7.662,-13.105 -25.171,-25.342 -25.171,-25.342c0,0 15.859,13.462 24.092,30.558c7.466,15.509 10.95,30.692 10.95,30.692c0,0 -19.017,-1.513 -29.029,-14.013Zm42.279,-127.708c-51.221,0 -92.742,41.525 -92.742,92.742c0,51.221 41.521,92.746 92.742,92.746c51.221,0 92.742,-41.525 92.742,-92.746c0,-51.217 -41.521,-92.742 -92.742,-92.742Z" style="fill:#fff;"/><path d="M1703.53,252.687c0,55.767 -45.208,100.975 -100.975,100.975c-55.766,0 -100.975,-45.208 -100.975,-100.975c0,-55.766 45.209,-100.975 100.975,-100.975c55.767,0 100.975,45.209 100.975,100.975Zm35.884,5.28l0,-14.53l-28.463,-5.425c-0.629,-4.679 -1.554,-9.266 -2.754,-13.741l24.162,-18.425l-5.558,-13.421l-29.229,6.054c-2.846,-4.979 -6.079,-9.712 -9.646,-14.162l14.913,-25.655l-10.275,-10.27l-24.529,16.675c-3.859,-2.888 -7.917,-5.521 -12.146,-7.888l4.108,-30.487l-13.421,-5.563l-16.812,25.596c-4.454,-1.142 -9.021,-2.008 -13.675,-2.583l-7.496,-28.313l-14.529,0l-5.405,28.363c-0.166,0.02 -0.337,0.037 -0.504,0.058c-4.604,0.604 -9.116,1.504 -13.521,2.662l-18.099,-23.737l-13.426,5.554l5.917,28.558c-4.162,2.338 -8.15,4.942 -11.95,7.788l-27.025,-15.708l-10.271,10.275l17.063,25.1c-2.838,3.579 -5.463,7.333 -7.842,11.254l-30.683,-4.138l-5.558,13.421l24.895,16.354c-1.6,5.417 -2.791,11.004 -3.541,16.734l-28.417,7.525l0,14.529l28.267,5.387c0.675,5.65 1.779,11.171 3.283,16.525l-22.396,17.079l5.559,13.421l27.287,-5.65c2.296,3.988 4.842,7.813 7.604,11.463l-14.546,25.029l10.271,10.271l23.254,-15.809c4.254,3.4 8.763,6.496 13.5,9.242l-3.712,27.558l13.421,5.563l14.883,-22.654c5.392,1.541 10.95,2.683 16.65,3.387l7.496,28.313l14.529,0l5.404,-28.354c5.554,-0.705 10.979,-1.83 16.242,-3.334l17.404,22.825l13.421,-5.558l-5.796,-27.979c4.8,-2.809 9.367,-5.975 13.662,-9.459l23.676,13.763l10.27,-10.271l-15.412,-22.675c3.425,-4.542 6.504,-9.362 9.2,-14.417l27.45,3.7l5.558,-13.42l-23.387,-15.363c1.091,-4.421 1.912,-8.95 2.45,-13.567l28.225,-7.47Z" style="fill:#fff;fill-rule:nonzero;"/><rect x="0" y="0" width="891.221" height="816.95" style="fill:#56c2ec;fill-rule:nonzero;"/><path d="M309.221,551.121l9.75,-13.496c6.9,7.346 17.7,13.796 31.646,13.796c14.4,0 20.1,-7.046 20.1,-13.646c0,-21 -58.346,-7.95 -58.346,-44.846c0,-16.5 14.55,-29.246 36.446,-29.246c15.6,0 28.196,4.95 37.495,13.946l-10.049,13.05c-7.796,-7.8 -18.446,-11.396 -28.946,-11.396c-10.35,0 -16.946,4.946 -16.946,12.446c0,18.596 58.191,7.046 58.191,44.396c0,16.646 -11.7,30.892 -38.695,30.892c-18.45,0 -31.796,-6.446 -40.646,-15.896Z" style="fill:#fff;fill-rule:nonzero;"/><path d="M404.771,565.221l0,-100.038l68.546,0l0,15.446l-50.996,0l0,25.95l49.942,0l0,15.446l-49.942,0l0,27.746l50.996,0l0,15.45l-68.546,0Z" style="fill:#fff;fill-rule:nonzero;"/><path d="M561.062,565.221l-52.191,-71.392l0,71.392l-17.55,0l0,-100.038l18,0l51.142,69.442l0,-69.442l17.55,0l0,100.038l-16.951,0Z" style="fill:#fff;fill-rule:nonzero;"/><path d="M599.321,565.221l0,-100.038l68.542,0l0,15.446l-50.996,0l0,25.95l49.946,0l0,15.446l-49.946,0l0,27.746l50.996,0l0,15.45l-68.542,0Z" style="fill:#fff;fill-rule:nonzero;"/><path d="M752.762,565.221l-28.045,-39.146l-28.046,39.146l-21,0l37.496,-51.296l-35.246,-48.742l21,0l25.796,36.742l25.646,-36.742l21.145,0l-35.096,48.592l37.346,51.446l-20.996,0Z" style="fill:#fff;fill-rule:nonzero;"/><path d="M522.904,698.567l0,-88.93l7.6,0l0,81.996l43.067,0l0,6.934l-50.667,0Z" style="fill:#fff;fill-rule:nonzero;"/><path d="M622.104,617.771l-20.933,52l42,0l-21.067,-52Zm32.396,80.796l-8.796,-21.867l-47.066,0l-8.8,21.867l-8.796,0l36.395,-88.93l9.467,0l36.396,88.93l-8.8,0Z" style="fill:#fff;fill-rule:nonzero;"/><path d="M737.967,698.567l-21.33,-76.396l-21.333,76.396l-8.533,0l-25.467,-88.93l8.534,0l21.466,78.263l21.867,-78.263l6.929,0l21.733,78.263l21.463,-78.263l8.533,0l-25.329,88.93l-8.533,0Z" style="fill:#fff;fill-rule:nonzero;"/><path d="M647.062,370.167c-64.908,0 -117.525,-52.617 -117.525,-117.525c0,-64.909 52.617,-117.53 117.525,-117.53c64.909,0 117.526,52.621 117.526,117.53c0,64.908 -52.617,117.525 -117.526,117.525Zm0,-244.834c-5.679,0 -11.274,0.371 -16.758,1.092c-62.392,8.204 -110.55,61.587 -110.55,126.217c0,70.308 57,127.308 127.308,127.308c70.313,0 127.309,-57 127.309,-127.308c0,-70.313 -56.996,-127.309 -127.309,-127.309Z" style="fill:#fff;"/><path d="M690.775,202.746c-3.988,18.487 9.067,42.366 2.8,62.979c-7.579,24.95 -38.617,35.583 -38.617,35.583c0,0 -1.975,7.429 -5.975,14.629c-4,7.196 -8.754,13.292 -8.754,13.292c0,0 -1.454,-2.146 -3.596,-1.683c-2.15,0.466 -3.662,-0.634 -3.662,-0.634c0,0 13.737,-15.125 18.041,-34.308c2.013,-8.992 0.7,-16.892 0.7,-16.892c0,0 5.109,-30.233 15.605,-50.891c5.816,-11.458 15.937,-24.9 15.937,-24.9c0,0 -8.879,7.216 -19.762,27.508c-8.309,15.496 -13.855,42.254 -13.855,42.254c0,0 -3.375,-10.7 -11.725,-19.05c-4.391,-4.395 -10.633,-8.933 -10.633,-8.933c0,0 1.4,-24.308 33.829,-41.683c17.104,-9.167 34.675,-12.946 34.675,-12.946l-3.341,3.266c0,0 2.175,-1.037 3.854,-1.562c1.679,-0.521 3.462,0.225 3.462,0.225c0,0 -6.4,1.775 -8.983,13.746Zm-92.529,90.541c-10.075,-12.57 -5.296,-27.408 -9.25,-42.229c-3.879,-14.533 -11.138,-20.258 -11.138,-20.258c0,0 32.334,-0.058 48.459,13.758c16.12,13.817 22.066,25.513 21.316,38.775c-0.754,13.263 -9.108,24.642 -9.108,24.642c0,0 -11.662,-29.358 -17.979,-40.167c-8.917,-15.254 -29.296,-29.496 -29.296,-29.496c0,0 18.458,15.667 28.037,35.567c8.692,18.05 12.746,35.725 12.746,35.725c0,0 -22.133,-1.767 -33.787,-16.317Zm49.208,-148.641c-59.617,0 -107.95,48.333 -107.95,107.95c0,59.616 48.333,107.946 107.95,107.946c59.617,0 107.946,-48.33 107.946,-107.946c0,-59.617 -48.329,-107.95 -107.946,-107.95Z" style="fill:#fff;"/></g></svg>