<?xml version="1.0" encoding="utf-8"?>
  <svg version="1.1" id="Layer_1" xmlns="http://www.w3.org/2000/svg" xmlns:xlink="http://www.w3.org/1999/xlink" x="0px" y="0px"
     viewBox="0 0 22.9 22.9" style="enable-background:new 0 0 22.9 22.9;" xml:space="preserve">
  <style type="text/css">
    .st0{clip-path:url(#SVGID_2_);}
    .st1{clip-path:url(#SVGID_4_);fill-rule:evenodd;clip-rule:evenodd;fill:#FFFFFF;}
  </style>
  <g>
    <g>
      <defs>
        <rect id="SVGID_1_" width="22.9" height="22.9"/>
      </defs>
      <clipPath id="SVGID_2_">
        <use xlink:href="#SVGID_1_"  style="overflow:visible;"/>
      </clipPath>
      <g class="st0">
        <defs>
          <rect id="SVGID_3_" y="0" width="22.9" height="22.9"/>
        </defs>
        <clipPath id="SVGID_4_">
          <use xlink:href="#SVGID_3_"  style="overflow:visible;"/>
        </clipPath>
        <path class="st1" fill="#FFFFFF" d="M11.5,0c-0.5,0-1,0-1.5,0.1C4.3,0.8,0,5.6,0,11.5c0,6.3,5.1,11.5,11.5,11.5s11.5-5.1,11.5-11.5
          C22.9,5.1,17.8,0,11.5,0 M11.5,22.1c-5.8,0-10.6-4.7-10.6-10.6c0-5.8,4.7-10.6,10.6-10.6s10.6,4.7,10.6,10.6
          C22.1,17.3,17.3,22.1,11.5,22.1"/>
        <path class="st1" fill="#FFFFFF" d="M11.5,1.7c-5.4,0-9.7,4.4-9.7,9.7c0,5.4,4.4,9.7,9.7,9.7c5.4,0,9.7-4.4,9.7-9.7C21.2,6.1,16.9,1.7,11.5,1.7
           M7.1,15.1c-0.9-1.1-0.5-2.5-0.8-3.8c-0.4-1.3-1-1.8-1-1.8s2.9,0,4.4,1.2s2,2.3,1.9,3.5c-0.1,1.2-0.8,2.2-0.8,2.2
          s-1.1-2.6-1.6-3.6c-0.8-1.4-2.6-2.7-2.6-2.7s1.7,1.4,2.5,3.2c0.8,1.6,1.1,3.2,1.1,3.2S8.1,16.4,7.1,15.1 M15.4,7
          c-0.4,1.7,0.8,3.8,0.3,5.7c-0.7,2.2-3.5,3.2-3.5,3.2s-0.2,0.7-0.5,1.3c-0.4,0.6-0.8,1.2-0.8,1.2s-0.1-0.2-0.3-0.2
          c-0.2,0-0.3-0.1-0.3-0.1s1.2-1.4,1.6-3.1c0.2-0.8,0.1-1.5,0.1-1.5s0.5-2.7,1.4-4.6c0.5-1,1.4-2.2,1.4-2.2S13.9,7.4,13,9.2
          c-0.7,1.4-1.2,3.8-1.2,3.8s-0.3-1-1.1-1.7c-0.4-0.4-1-0.8-1-0.8s0.1-2.2,3-3.8c1.5-0.8,3.1-1.2,3.1-1.2l-0.3,0.3
          c0,0,0.2-0.1,0.3-0.1c0.2,0,0.3,0,0.3,0S15.6,5.9,15.4,7"/>
      </g>
    </g>
  </g>
  </svg>
